<!-- Generated by IcoMoon.io -->
<svg version="1.1" xmlns="http://www.w3.org/2000/svg" width="1024" height="1024" viewBox="0 0 1024 1024">
<title>recepo-4</title>
<g id="icomoon-ignore">
</g>
<path fill="#000" d="M778.624 572.16c-33.536 67.968-78.976 135.68-125.44 196.48-46.778 60.563-92.999 114.169-141.878 165.209l0.694-0.729c-48.186-50.31-94.406-103.915-137.746-159.865l-3.438-4.615c-46.464-60.8-91.904-128.512-125.44-196.48-33.92-68.672-53.376-132.992-53.376-188.16 0-176.731 143.269-320 320-320s320 143.269 320 320v0c0 55.168-19.52 119.488-53.376 188.16zM512 1024s384-363.904 384-640c0-212.077-171.923-384-384-384s-384 171.923-384 384v0c0 276.096 384 640 384 640z"></path>
<path fill="#000" d="M512 512c-70.692 0-128-57.308-128-128s57.308-128 128-128v0c70.692 0 128 57.308 128 128s-57.308 128-128 128v0zM512 576c106.039 0 192-85.961 192-192s-85.961-192-192-192v0c-106.039 0-192 85.961-192 192s85.961 192 192 192v0z"></path>
</svg>
