<!-- Generated by IcoMoon.io -->
<svg version="1.1" xmlns="http://www.w3.org/2000/svg" width="1024" height="1024" viewBox="0 0 1024 1024">
<title>recepo-4</title>
<g id="icomoon-ignore">
</g>
<path fill="#000" d="M0 512c0-282.77 229.23-512 512-512s512 229.23 512 512v0c0 282.77-229.23 512-512 512s-512-229.23-512-512v0zM480 68.928c-42.88 13.056-85.44 52.48-120.768 118.72-10.28 18.898-20.382 41.453-28.829 64.8l-1.123 3.552h150.72v-187.072zM261.76 256c12.079-38.128 25.963-70.724 42.515-101.68l-1.555 3.184c12.166-22.826 24.833-42.362 38.954-60.722l-0.746 1.010c-80.861 34.102-147.541 88.437-195.657 156.783l-0.951 1.425h117.44zM224.512 480c1.92-56.128 8.832-109.952 19.968-160h-137.344c-22.719 46.693-37.758 101.118-41.901 158.561l-0.083 1.439h159.36zM310.208 320c-11.881 47.349-19.656 102.259-21.595 158.65l-0.037 1.35h191.424v-160h-169.792zM544 320v160h191.36c-1.95-57.727-9.703-112.641-22.71-165.488l1.142 5.488h-169.792zM288.64 544c1.952 57.728 9.705 112.642 22.71 165.489l-1.142-5.489h169.792v-160h-191.36zM544 544v160h169.792c11.968-48.96 19.584-102.912 21.632-160h-191.424zM329.28 768c8.832 24.704 18.88 47.616 29.952 68.352 35.328 66.24 77.952 105.6 120.768 118.72v-187.072h-150.72zM340.928 926.208c-13.376-17.35-26.044-36.886-37.085-57.426l-1.123-2.286c-14.996-27.772-28.881-60.369-39.793-94.298l-1.167-4.198h-117.44c49.065 69.774 115.746 124.109 193.66 157.099l2.948 1.109zM244.48 704c-10.908-47.291-18.085-102.265-19.931-158.588l-0.037-1.412h-159.36c3.968 56.96 18.624 110.912 41.984 160h137.344zM683.072 926.208c80.862-34.099 147.543-88.434 195.656-156.782l0.952-1.426h-117.44c-12.080 38.129-25.965 70.725-42.515 101.682l1.555-3.186c-12.161 22.825-24.829 42.361-38.953 60.719l0.745-1.007zM544 768v187.072c42.88-13.056 85.44-52.48 120.768-118.72 11.072-20.736 21.12-43.648 29.952-68.352h-150.72zM779.52 704h137.344c23.36-49.088 38.016-103.040 41.984-160h-159.36c-1.882 57.733-9.059 112.707-21.080 165.845l1.112-5.845zM958.848 480c-4.228-58.882-19.266-113.306-43.143-162.656l1.159 2.656h-137.344c11.136 50.048 18.048 103.872 19.968 160h159.36zM721.28 157.504c15.808 29.696 29.568 62.72 40.96 98.496h117.44c-49.065-69.774-115.746-124.109-193.66-157.099l-2.948-1.109c13.952 18.176 26.752 38.272 38.208 59.712zM694.72 256c-9.568-26.898-19.671-49.453-31.288-71.072l1.336 2.72c-35.328-66.24-77.888-105.6-120.768-118.72v187.072h150.72z"></path>
</svg>
