<!-- Generated by IcoMoon.io -->
<svg version="1.1" xmlns="http://www.w3.org/2000/svg" width="1024" height="1024" viewBox="0 0 1024 1024">
<title>recepo-4</title>
<g id="icomoon-ignore">
</g>
<path fill="#000" d="M0 736c0-17.673 14.327-32 32-32v0h128c17.673 0 32 14.327 32 32v0 128c0 17.673-14.327 32-32 32v0h-128c-17.673 0-32-14.327-32-32v0-128zM256 544c0-17.673 14.327-32 32-32v0h128c17.673 0 32 14.327 32 32v0 320c0 17.673-14.327 32-32 32v0h-128c-17.673 0-32-14.327-32-32v0-320zM512 352c0-17.673 14.327-32 32-32v0h128c17.673 0 32 14.327 32 32v0 512c0 17.673-14.327 32-32 32v0h-128c-17.673 0-32-14.327-32-32v0-512zM768 160c0-17.673 14.327-32 32-32v0h128c17.673 0 32 14.327 32 32v0 704c0 17.673-14.327 32-32 32v0h-128c-17.673 0-32-14.327-32-32v0-704z"></path>
</svg>
